nColumns=28
nRows=79
DataType=double
version=3
OpenSimVersion=4.1
endheader
time	ground_force_1_vx	ground_force_1_vy	ground_force_1_vz	ground_force_1_px	ground_force_1_py	ground_force_1_pz	ground_force_1_mx	ground_force_1_my	ground_force_1_mz	ground_force_2_vx	ground_force_2_vy	ground_force_2_vz	ground_force_2_px	ground_force_2_py	ground_force_2_pz	ground_force_2_mx	ground_force_2_my	ground_force_2_mz	ground_force_3_vx	ground_force_3_vy	ground_force_3_vz	ground_force_3_px	ground_force_3_py	ground_force_3_pz	ground_force_3_mx	ground_force_3_my	ground_force_3_mz
2.58	-2.59523	276.935	-20.0753	-0.217895	0.006	-0.46169	0	-0.838446	0	0.467285	311.055	22.1382	-0.221039	0.006	-0.732004	0	1.26881	0	0	0	0	0	0	0	0	0	0
2.59	-2.58516	276.623	-20.027	-0.217885	0.006	-0.461892	0	-0.8353	0	0.552295	310.992	22.1705	-0.220978	0.006	-0.731834	0	1.30291	0	0	0	0	0	0	0	0	0	0
2.6	-2.5626	276.639	-20.0202	-0.217871	0.006	-0.461896	0	-0.829049	0	0.585935	310.908	22.1348	-0.221037	0.006	-0.731775	0	1.31911	0	0	0	0	0	0	0	0	0	0
2.61	-2.41113	277.091	-20.0668	-0.217774	0.006	-0.461594	0	-0.852484	0	0.618166	310.85	22.1003	-0.220981	0.006	-0.731868	0	1.3179	0	0	0	0	0	0	0	0	0	0
2.62	-2.2906	277.465	-20.0847	-0.217681	0.006	-0.461409	0	-0.860829	0	0.667929	310.918	22.1208	-0.22084	0.006	-0.731911	0	1.3039	0	0	0	0	0	0	0	0	0	0
2.63	-2.31436	277.362	-20.1009	-0.217739	0.006	-0.461558	0	-0.844836	0	0.6676	310.986	22.1306	-0.220783	0.006	-0.731933	0	1.29698	0	0	0	0	0	0	0	0	0	0
2.64	-2.22787	277.364	-20.0993	-0.217751	0.006	-0.461612	0	-0.864894	0	0.675459	311.079	22.142	-0.22078	0.006	-0.731896	0	1.30106	0	0	0	0	0	0	0	0	0	0
2.65	-2.14885	277.557	-20.0994	-0.217651	0.006	-0.461557	0	-0.876735	0	0.662238	311.256	22.1454	-0.220642	0.006	-0.731856	0	1.30574	0	0	0	0	0	0	0	0	0	0
2.66	-2.10245	277.924	-20.1345	-0.217582	0.006	-0.461486	0	-0.863853	0	0.672379	311.452	22.1528	-0.220318	0.006	-0.731964	0	1.31921	0	0	0	0	0	0	0	0	0	0
2.67	-2.02684	278.203	-20.1832	-0.217553	0.006	-0.461433	0	-0.851603	0	0.71526	311.592	22.1487	-0.220202	0.006	-0.732086	0	1.32788	0	0	0	0	0	0	0	0	0	0
2.68	-2.07872	278.223	-20.1689	-0.217598	0.006	-0.461529	0	-0.833057	0	0.692855	311.686	22.1172	-0.220226	0.006	-0.732166	0	1.30464	0	0	0	0	0	0	0	0	0	0
2.69	-2.1682	278.068	-20.1514	-0.217523	0.006	-0.461732	0	-0.820117	0	0.61096	311.644	22.1146	-0.220239	0.006	-0.732225	0	1.29075	0	0	0	0	0	0	0	0	0	0
2.7	-2.12642	278.222	-20.2576	-0.217434	0.006	-0.461626	0	-0.833808	0	0.513595	311.351	22.1433	-0.220009	0.006	-0.732229	0	1.28327	0	0	0	0	0	0	0	0	0	0
2.71	-2.13499	278.294	-20.2798	-0.217411	0.006	-0.461505	0	-0.850966	0	0.461371	310.91	22.172	-0.219845	0.006	-0.732128	0	1.28205	0	0	0	0	0	0	0	0	0	0
2.72	-2.23414	278.22	-20.1902	-0.217393	0.006	-0.461471	0	-0.844978	0	0.380958	310.838	22.1516	-0.219759	0.006	-0.732171	0	1.25894	0	0	0	0	0	0	0	0	0	0
2.73	-2.3071	278.293	-20.1553	-0.217361	0.006	-0.461473	0	-0.838392	0	0.270612	310.863	22.0986	-0.219751	0.006	-0.732152	0	1.23802	0	0	0	0	0	0	0	0	0	0
2.74	-2.33172	278.347	-20.1626	-0.217232	0.006	-0.461493	0	-0.853259	0	0.261924	310.789	22.094	-0.219861	0.006	-0.732075	0	1.22898	0	0	0	0	0	0	0	0	0	0
2.75	-2.29316	278.385	-20.1823	-0.217131	0.006	-0.461395	0	-0.852503	0	0.241528	310.718	22.1037	-0.219829	0.006	-0.732072	0	1.24043	0	0	0	0	0	0	0	0	0	0
2.76	-2.28562	278.518	-20.1429	-0.217088	0.006	-0.4614	0	-0.851212	0	0.287105	310.663	22.0844	-0.219734	0.006	-0.732085	0	1.24518	0	0	0	0	0	0	0	0	0	0
2.77	-2.28214	278.491	-20.1329	-0.217075	0.006	-0.461586	0	-0.873134	0	0.320102	310.668	22.0823	-0.219633	0.006	-0.732122	0	1.24984	0	0	0	0	0	0	0	0	0	0
2.78	-2.28023	278.365	-20.1529	-0.217048	0.006	-0.46153	0	-0.868504	0	0.250757	310.678	22.0792	-0.219513	0.006	-0.732055	0	1.24962	0	0	0	0	0	0	0	0	0	0
2.79	-2.3234	278.576	-20.1756	-0.21695	0.006	-0.461254	0	-0.850528	0	0.201612	310.652	22.0714	-0.219446	0.006	-0.731985	0	1.24799	0	0	0	0	0	0	0	0	0	0
2.8	-2.3108	278.418	-20.1728	-0.216909	0.006	-0.461313	0	-0.844619	0	0.216784	310.576	22.1095	-0.219343	0.006	-0.732001	0	1.24615	0	0	0	0	0	0	0	0	0	0
2.81	-2.29883	278.176	-20.1815	-0.216856	0.006	-0.461433	0	-0.848748	0	0.238379	310.519	22.1422	-0.219207	0.006	-0.732123	0	1.24606	0	0	0	0	0	0	0	0	0	0
2.82	-2.32198	278.169	-20.218	-0.216741	0.006	-0.461393	0	-0.853056	0	0.224614	310.459	22.1948	-0.219044	0.006	-0.732201	0	1.25915	0	0	0	0	0	0	0	0	0	0
2.83	-2.27411	277.922	-20.1955	-0.216718	0.006	-0.461603	0	-0.858356	0	0.245394	310.519	22.2652	-0.218843	0.006	-0.732194	0	1.26164	0	0	0	0	0	0	0	0	0	0
2.84	-2.21864	277.876	-20.1498	-0.216689	0.006	-0.46161	0	-0.854103	0	0.254749	310.516	22.2982	-0.218635	0.006	-0.732169	0	1.27838	0	0	0	0	0	0	0	0	0	0
2.85	-2.17249	278.059	-20.1651	-0.21659	0.006	-0.461477	0	-0.850889	0	0.178995	310.448	22.3204	-0.218534	0.006	-0.732118	0	1.2765	0	0	0	0	0	0	0	0	0	0
2.86	-2.16851	278.268	-20.2162	-0.216538	0.006	-0.461346	0	-0.854067	0	0.13318	310.517	22.2946	-0.218561	0.006	-0.732113	0	1.27925	0	0	0	0	0	0	0	0	0	0
2.87	-2.24545	278.389	-20.2394	-0.216446	0.006	-0.461193	0	-0.83083	0	0.110454	310.577	22.2742	-0.218368	0.006	-0.73221	0	1.27931	0	0	0	0	0	0	0	0	0	0
2.88	-2.33642	278.084	-20.1717	-0.216302	0.006	-0.461273	0	-0.808082	0	0.126548	310.568	22.2811	-0.218284	0.006	-0.732204	0	1.26786	0	0	0	0	0	0	0	0	0	0
2.89	-2.3484	277.939	-20.1901	-0.216235	0.006	-0.461371	0	-0.836589	0	0.186098	310.55	22.2511	-0.218232	0.006	-0.732137	0	1.25662	0	0	0	0	0	0	0	0	0	0
2.9	-2.41627	278.148	-20.1988	-0.216212	0.006	-0.461391	0	-0.844395	0	0.151221	310.665	22.2499	-0.218152	0.006	-0.732085	0	1.26622	0	0	0	0	0	0	0	0	0	0
2.91	-2.43631	278.684	-20.2419	-0.216133	0.006	-0.461203	0	-0.847567	0	0.104754	310.876	22.2543	-0.218059	0.006	-0.732061	0	1.26683	0	0	0	0	0	0	0	0	0	0
2.92	-2.43437	278.984	-20.2275	-0.216008	0.006	-0.461033	0	-0.858096	0	0.0694201	310.992	22.2561	-0.217981	0.006	-0.732085	0	1.2685	0	0	0	0	0	0	0	0	0	0
2.93	-2.56099	278.65	-20.1528	-0.215907	0.006	-0.461198	0	-0.835928	0	0.0649779	311.118	22.2292	-0.217938	0.006	-0.732187	0	1.28438	0	0	0	0	0	0	0	0	0	0
2.94	-2.63776	278.642	-20.1709	-0.215847	0.006	-0.461264	0	-0.828239	0	0.0496003	311.166	22.2013	-0.217935	0.006	-0.732149	0	1.30079	0	0	0	0	0	0	0	0	0	0
2.95	-2.62123	278.63	-20.2087	-0.215745	0.006	-0.461265	0	-0.835279	0	-0.00231505	311.218	22.2423	-0.217724	0.006	-0.732131	0	1.31679	0	0	0	0	0	0	0	0	0	0
2.96	-2.59532	278.534	-20.2601	-0.215682	0.006	-0.461191	0	-0.832166	0	-0.0203202	311.332	22.2799	-0.217547	0.006	-0.732197	0	1.34898	0	0	0	0	0	0	0	0	0	0
2.97	-2.6424	278.457	-20.2631	-0.215715	0.006	-0.461209	0	-0.828633	0	-0.0720306	311.141	22.3437	-0.217446	0.006	-0.732091	0	1.32432	0	0	0	0	0	0	0	0	0	0
2.98	-2.68323	278.476	-20.249	-0.2156	0.006	-0.461214	0	-0.815311	0	-0.0749542	310.954	22.3524	-0.217286	0.006	-0.732176	0	1.31676	0	0	0	0	0	0	0	0	0	0
2.99	-2.63165	278.505	-20.2432	-0.215489	0.006	-0.461098	0	-0.815985	0	-0.0964346	310.769	22.2628	-0.217366	0.006	-0.732412	0	1.3381	0	0	0	0	0	0	0	0	0	0
3	-2.5949	278.34	-20.2496	-0.215555	0.006	-0.461129	0	-0.830709	0	-0.104963	310.532	22.219	-0.217506	0.006	-0.732495	0	1.33884	0	0	0	0	0	0	0	0	0	0
3.01	-2.58758	278.156	-20.2793	-0.215623	0.006	-0.46122	0	-0.837992	0	-0.0656513	310.415	22.2396	-0.217423	0.006	-0.732445	0	1.31753	0	0	0	0	0	0	0	0	0	0
3.02	-2.62837	277.924	-20.2379	-0.215648	0.006	-0.461374	0	-0.833537	0	-0.0368146	310.296	22.236	-0.217331	0.006	-0.732413	0	1.31275	0	0	0	0	0	0	0	0	0	0
3.03	-2.67242	277.875	-20.1708	-0.215564	0.006	-0.461498	0	-0.819003	0	-0.0490024	310.136	22.1988	-0.217483	0.006	-0.732407	0	1.35814	0	0	0	0	0	0	0	0	0	0
3.04	-2.68211	278.126	-20.1558	-0.215503	0.006	-0.461441	0	-0.817436	0	-0.0258691	310.164	22.179	-0.217585	0.006	-0.732482	0	1.38467	0	0	0	0	0	0	0	0	0	0
3.05	-2.54736	278.623	-20.2289	-0.215497	0.006	-0.46132	0	-0.852402	0	-0.0179577	310.348	22.1508	-0.217555	0.006	-0.732635	0	1.38289	0	0	0	0	0	0	0	0	0	0
3.06	-2.49441	278.885	-20.2039	-0.215459	0.006	-0.46128	0	-0.869159	0	0.0268368	310.418	22.1559	-0.217548	0.006	-0.732561	0	1.37156	0	0	0	0	0	0	0	0	0	0
3.07	-2.47754	279.051	-20.1729	-0.21542	0.006	-0.461211	0	-0.856846	0	0.0741182	310.487	22.178	-0.217554	0.006	-0.732423	0	1.36867	0	0	0	0	0	0	0	0	0	0
3.08	-2.40372	279.22	-20.2159	-0.215417	0.006	-0.461015	0	-0.838456	0	0.051699	310.594	22.1861	-0.217418	0.006	-0.732383	0	1.34933	0	0	0	0	0	0	0	0	0	0
3.09	-2.44061	279.04	-20.264	-0.215413	0.006	-0.461043	0	-0.84339	0	-0.0062449	310.631	22.1768	-0.217376	0.006	-0.732421	0	1.30468	0	0	0	0	0	0	0	0	0	0
3.1	-2.50735	278.625	-20.2339	-0.215293	0.006	-0.461243	0	-0.849112	0	-0.036014	310.512	22.2159	-0.217419	0.006	-0.73233	0	1.31081	0	0	0	0	0	0	0	0	0	0
3.11	-2.54645	278.513	-20.2696	-0.215138	0.006	-0.461269	0	-0.847142	0	-0.0771754	310.312	22.2409	-0.217302	0.006	-0.732224	0	1.32423	0	0	0	0	0	0	0	0	0	0
3.12	-2.6192	278.44	-20.3684	-0.215079	0.006	-0.461208	0	-0.829978	0	-0.0982497	310.348	22.2114	-0.217201	0.006	-0.732368	0	1.32851	0	0	0	0	0	0	0	0	0	0
3.13	-2.68591	278.092	-20.3175	-0.215136	0.006	-0.46121	0	-0.832658	0	-0.142447	310.336	22.1964	-0.216947	0.006	-0.732484	0	1.32624	0	0	0	0	0	0	0	0	0	0
3.14	-2.69699	278.213	-20.2407	-0.21514	0.006	-0.461033	0	-0.852657	0	-0.200616	310.298	22.1903	-0.216659	0.006	-0.732435	0	1.32645	0	0	0	0	0	0	0	0	0	0
3.15	-2.70029	278.517	-20.1658	-0.215091	0.006	-0.460958	0	-0.845484	0	-0.222538	310.161	22.1493	-0.216464	0.006	-0.732313	0	1.34004	0	0	0	0	0	0	0	0	0	0
3.16	-2.70946	278.612	-20.1923	-0.215045	0.006	-0.461015	0	-0.841422	0	-0.21365	310.078	22.1064	-0.216367	0.006	-0.732271	0	1.36269	0	0	0	0	0	0	0	0	0	0
3.17	-2.6136	278.729	-20.3105	-0.214923	0.006	-0.460909	0	-0.853512	0	-0.225716	310.148	22.1027	-0.216292	0.006	-0.732208	0	1.35986	0	0	0	0	0	0	0	0	0	0
3.18	-2.56314	278.71	-20.3381	-0.2149	0.006	-0.460972	0	-0.851792	0	-0.254324	310.138	22.1121	-0.216311	0.006	-0.732128	0	1.35623	0	0	0	0	0	0	0	0	0	0
3.19	-2.54933	278.689	-20.3214	-0.214896	0.006	-0.461088	0	-0.848731	0	-0.259262	310.059	22.12	-0.216317	0.006	-0.73217	0	1.34632	0	0	0	0	0	0	0	0	0	0
3.2	-2.58557	278.716	-20.2237	-0.214962	0.006	-0.461137	0	-0.842601	0	-0.236396	310.03	22.1334	-0.216342	0.006	-0.732262	0	1.30654	0	0	0	0	0	0	0	0	0	0
3.21	-2.49561	278.946	-20.2235	-0.215025	0.006	-0.46116	0	-0.869189	0	-0.233472	310.037	22.1264	-0.21638	0.006	-0.732265	0	1.28767	0	0	0	0	0	0	0	0	0	0
3.22	-2.36274	279.059	-20.2758	-0.215028	0.006	-0.461241	0	-0.889103	0	-0.212215	310.016	22.0998	-0.216492	0.006	-0.732259	0	1.33282	0	0	0	0	0	0	0	0	0	0
3.23	-2.43365	279.044	-20.2536	-0.215024	0.006	-0.461213	0	-0.865985	0	-0.199155	309.947	22.1048	-0.216496	0.006	-0.732203	0	1.35232	0	0	0	0	0	0	0	0	0	0
3.24	-2.44648	279.236	-20.2854	-0.21504	0.006	-0.461021	0	-0.858106	0	-0.221836	309.812	22.1232	-0.216385	0.006	-0.73221	0	1.34793	0	0	0	0	0	0	0	0	0	0
3.25	-2.37621	279.454	-20.3084	-0.215116	0.006	-0.460956	0	-0.870434	0	-0.20132	309.884	22.1228	-0.216283	0.006	-0.732269	0	1.34274	0	0	0	0	0	0	0	0	0	0
3.26	-2.33798	279.463	-20.3272	-0.215169	0.006	-0.461045	0	-0.883703	0	-0.171323	309.867	22.1424	-0.216302	0.006	-0.73226	0	1.33838	0	0	0	0	0	0	0	0	0	0
3.27	-2.29248	279.446	-20.3404	-0.215159	0.006	-0.461072	0	-0.889521	0	-0.12671	309.808	22.1635	-0.216323	0.006	-0.732225	0	1.34251	0	0	0	0	0	0	0	0	0	0
3.28	-2.20566	279.527	-20.3374	-0.215119	0.006	-0.461059	0	-0.886231	0	-0.0758653	309.961	22.1814	-0.216327	0.006	-0.732347	0	1.34722	0	0	0	0	0	0	0	0	0	0
3.29	-2.13235	279.467	-20.3384	-0.215179	0.006	-0.461071	0	-0.88999	0	-0.0707492	310.177	22.1512	-0.216438	0.006	-0.732584	0	1.35215	0	0	0	0	0	0	0	0	0	0
3.3	-2.11844	279.377	-20.2757	-0.215174	0.006	-0.461081	0	-0.889081	0	-0.0482351	310.293	22.1168	-0.216274	0.006	-0.732628	0	1.37896	0	0	0	0	0	0	0	0	0	0
3.31	-2.09027	279.28	-20.2561	-0.215045	0.006	-0.461119	0	-0.884808	0	-0.0952473	310.414	22.1284	-0.215833	0.006	-0.732685	0	1.39361	0	0	0	0	0	0	0	0	0	0
3.32	-2.13563	279.042	-20.2385	-0.214977	0.006	-0.461165	0	-0.879883	0	-0.12705	310.183	22.1967	-0.215447	0.006	-0.73263	0	1.36259	0	0	0	0	0	0	0	0	0	0
3.33	-2.17629	278.881	-20.1683	-0.21488	0.006	-0.461099	0	-0.873942	0	-0.132524	309.695	22.2657	-0.21538	0.006	-0.732444	0	1.35664	0	0	0	0	0	0	0	0	0	0
3.34	-2.22223	278.675	-20.1539	-0.214865	0.006	-0.461141	0	-0.873797	0	-0.176218	309.439	22.3435	-0.215438	0.006	-0.732305	0	1.3637	0	0	0	0	0	0	0	0	0	0
3.35	-2.17851	278.663	-20.176	-0.214869	0.006	-0.461074	0	-0.880336	0	-0.228663	309.218	22.3499	-0.21532	0.006	-0.732281	0	1.34356	0	0	0	0	0	0	0	0	0	0
3.36	-2.10801	278.802	-20.1921	-0.21478	0.006	-0.461039	0	-0.870692	0	-0.261615	309.132	22.328	-0.21506	0.006	-0.732407	0	1.33615	0	0	0	0	0	0	0	0	0	0
